<?xml version="1.0" standalone="no"?>
<!DOCTYPE svg PUBLIC "-//W3C//DTD SVG 20010904//EN"
 "http://www.w3.org/TR/2001/REC-SVG-20010904/DTD/svg10.dtd">
<svg version="1.0" xmlns="http://www.w3.org/2000/svg"
 width="16.000000pt" height="16.000000pt" viewBox="0 0 16.000000 16.000000"
 preserveAspectRatio="xMidYMid meet">
<metadata>
Created by potrace 1.11, written by Peter Selinger 2001-2013
</metadata>
<g transform="translate(0.000000,16.000000) scale(0.002585,-0.002585)"
fill="#000000" stroke="none">
<path d="M0 3095 l0 -3095 3095 0 3095 0 0 805 c0 709 -2 805 -15 805 -8 0
-15 7 -15 15 0 8 -5 15 -11 15 -5 0 -7 -5 -3 -12 4 -7 3 -8 -4 -4 -7 4 -12 16
-12 27 0 11 -4 18 -10 14 -5 -3 -16 8 -25 25 -9 17 -20 28 -26 25 -11 -7 -32
12 -42 38 -4 11 -12 15 -19 11 -8 -5 -9 -2 -5 10 5 14 3 17 -8 13 -9 -4 -22 5
-35 24 -12 16 -26 27 -31 24 -5 -4 -9 -1 -9 5 0 17 -26 40 -47 41 -10 0 -13 3
-5 6 6 2 12 9 12 15 0 6 -7 8 -15 4 -9 -3 -15 0 -15 8 0 9 -8 12 -23 9 -18 -4
-19 -3 -7 6 13 9 13 11 -3 11 -10 0 -22 12 -27 26 -6 15 -14 22 -22 18 -8 -5
-9 -2 -5 10 4 10 3 15 -3 11 -6 -3 -10 -1 -10 5 0 6 -4 9 -9 6 -5 -3 -12 1
-15 9 -3 8 -9 15 -13 14 -20 -3 -24 2 -13 16 10 12 8 14 -9 10 -12 -2 -20 1
-18 8 1 7 -5 11 -14 11 -9 -1 -16 6 -15 15 0 9 -4 15 -11 14 -8 -2 -10 4 -6
14 4 11 3 14 -6 9 -17 -11 -61 21 -61 44 0 12 -5 17 -14 14 -8 -3 -17 0 -22 7
-5 8 -3 10 7 4 12 -8 12 -6 0 8 -16 20 -36 23 -25 5 5 -10 3 -10 -7 0 -8 7
-14 16 -14 20 -1 4 -7 18 -14 31 -10 19 -15 21 -22 10 -7 -11 -9 -10 -9 4 0
15 -11 22 -33 18 -5 -1 -6 3 -2 8 10 18 -17 49 -38 43 -13 -3 -18 -1 -13 6 9
15 -31 55 -46 46 -7 -5 -8 -3 -3 6 6 10 4 12 -11 6 -10 -4 -15 -4 -12 0 4 4
-4 15 -17 26 -29 23 -33 40 -7 32 16 -5 16 -5 -1 6 -9 6 -21 9 -26 6 -5 -3 -8
2 -7 12 0 9 -5 16 -13 14 -7 -1 -21 6 -31 18 -9 11 -23 20 -30 20 -10 0 -10 3
0 15 10 12 8 14 -9 10 -14 -2 -21 1 -21 11 0 8 -5 14 -11 14 -5 0 -7 6 -3 13
5 8 2 7 -9 -2 -15 -12 -17 -12 -11 3 4 11 1 16 -11 16 -10 0 -13 5 -9 12 5 8
2 9 -9 5 -10 -3 -17 -3 -17 2 0 4 -14 22 -30 40 -17 17 -28 36 -24 42 3 6 0 9
-8 7 -7 -1 -28 13 -47 32 -18 19 -37 35 -42 35 -6 0 -13 6 -18 13 -5 8 -12 13
-17 13 -5 0 -9 7 -9 16 0 9 -7 18 -15 20 -13 4 -13 3 0 -6 11 -8 11 -11 2 -11
-7 0 -16 8 -19 18 -8 20 -35 42 -44 36 -4 -2 -9 6 -12 17 -4 13 -10 18 -18 13
-8 -4 -10 -3 -5 4 4 7 2 12 -4 12 -6 0 -8 5 -5 10 15 25 -26 4 -135 -67 -65
-43 -171 -112 -236 -153 -65 -41 -179 -114 -254 -162 -74 -48 -175 -113 -225
-144 -49 -32 -133 -85 -185 -119 -52 -34 -133 -86 -180 -115 -47 -29 -108 -70
-135 -91 -108 -81 -227 -114 -315 -86 -27 8 -129 74 -255 164 -201 144 -244
174 -470 332 -55 39 -149 107 -210 151 -60 44 -137 99 -170 121 -33 23 -98 70
-145 104 -47 34 -148 106 -225 160 -77 54 -173 123 -213 153 -41 29 -76 52
-78 49 -3 -3 -8 -524 -11 -1158 -4 -958 -7 -1162 -19 -1199 -18 -58 -102 -146
-154 -161 -21 -6 -71 -10 -112 -8 -61 4 -79 9 -104 29 -50 41 -92 102 -103
150 -13 56 -15 2918 -2 2973 5 21 25 57 44 81 58 70 346 272 680 476 135 83
253 160 697 457 240 160 264 182 224 197 -10 4 -13 2 -8 -6 5 -7 3 -8 -5 -4
-7 5 -10 13 -8 20 6 14 -15 34 -31 28 -7 -2 -12 5 -12 17 0 19 -10 26 -32 22
-5 0 -8 4 -8 10 0 5 -4 8 -8 5 -4 -2 -14 9 -21 26 -10 22 -18 28 -33 25 -15
-4 -18 -2 -14 10 5 11 2 13 -9 9 -10 -3 -13 -2 -10 5 8 12 -26 40 -39 32 -5
-4 -6 -1 -2 5 4 7 3 12 -3 12 -6 0 -13 11 -17 25 -4 18 -15 28 -35 32 -16 3
-29 12 -29 19 0 8 -5 14 -11 14 -14 0 -40 26 -32 33 3 3 -6 9 -21 13 -14 3
-26 13 -26 21 0 10 -6 13 -16 9 -15 -6 -15 -4 -3 11 12 15 12 16 -4 10 -10 -4
-16 -3 -13 2 3 5 -6 20 -21 35 -24 25 -37 30 -57 27 -5 -1 -6 5 -3 13 3 8 -1
17 -9 20 -9 3 -12 10 -9 16 3 5 1 10 -4 10 -6 0 -11 -5 -11 -11 0 -20 -29 11
-32 34 -2 12 -7 21 -11 19 -4 -1 -22 12 -39 30 -17 18 -27 27 -23 20 6 -11 3
-11 -13 -1 -12 7 -19 16 -16 20 2 4 -8 14 -21 23 -15 10 -23 22 -19 28 5 7 2
9 -9 5 -12 -4 -14 -2 -10 10 4 10 2 14 -4 10 -14 -9 -53 21 -63 49 -5 13 -16
24 -25 24 -8 0 -15 8 -15 18 0 14 -2 15 -10 2 -8 -13 -10 -13 -10 2 0 9 -9 19
-19 23 -12 3 -18 12 -15 20 4 10 0 13 -14 10 -16 -3 -19 1 -14 17 3 14 1 19
-6 14 -6 -3 -17 1 -25 9 -9 8 -22 15 -29 15 -10 0 -10 2 1 9 9 6 10 11 2 15
-6 4 -11 4 -11 -1 -1 -4 -8 5 -16 20 -8 15 -19 25 -24 22 -6 -4 -10 -1 -10 5
0 6 -4 8 -10 5 -9 -6 -15 8 -11 29 1 5 -5 4 -13 -4 -14 -11 -16 -9 -16 8 0 12
-5 24 -12 28 -7 5 -8 2 -3 -7 4 -8 -4 -3 -17 11 -14 14 -23 28 -21 33 2 4
-282 7 -631 7 l-636 0 0 -3095z"/>
<path d="M2865 4646 c-83 -55 -305 -199 -425 -276 -80 -51 -188 -121 -240
-155 -52 -34 -136 -89 -187 -121 -50 -33 -138 -89 -195 -125 -56 -37 -147 -95
-200 -129 l-98 -63 78 -54 c90 -63 270 -189 409 -287 54 -38 141 -99 193 -136
52 -36 158 -111 235 -165 77 -54 156 -109 175 -122 19 -13 67 -45 105 -73 140
-100 419 -292 431 -297 6 -2 78 40 160 95 165 109 335 220 554 362 80 51 195
125 255 165 61 39 123 79 138 89 l28 17 -24 23 c-14 13 -32 26 -42 29 -9 4
-14 11 -11 16 3 5 -4 11 -15 14 -15 4 -20 11 -15 22 3 9 2 13 -4 10 -6 -3 -10
-1 -10 5 0 6 -4 9 -9 5 -5 -3 -16 4 -24 15 -7 11 -17 17 -20 13 -4 -3 -7 3 -7
15 0 12 -5 22 -11 22 -5 0 -7 -5 -3 -11 4 -7 -1 -7 -16 1 -12 7 -19 18 -16 26
3 8 0 13 -7 11 -7 -1 -11 4 -10 11 2 6 -4 12 -12 12 -9 0 -12 6 -8 17 5 13 2
15 -11 10 -9 -4 -15 -3 -13 1 3 4 -5 16 -16 27 -11 11 -17 15 -13 8 3 -6 1
-15 -5 -19 -7 -4 -9 -3 -5 4 3 6 2 13 -4 17 -6 4 -7 11 -4 17 4 6 -1 8 -13 4
-17 -5 -20 -2 -19 16 1 16 -4 22 -15 20 -9 -1 -22 5 -29 13 -10 12 -10 15 1
16 12 0 -24 20 -42 23 -12 2 -38 34 -32 40 4 3 -1 6 -11 6 -9 0 -14 5 -11 10
3 6 -1 10 -9 10 -10 0 -13 6 -9 17 4 11 3 14 -5 9 -7 -4 -12 -2 -12 4 0 6 -5
8 -12 4 -6 -4 -8 -3 -5 3 4 6 1 15 -6 21 -12 10 -18 12 -37 12 -5 0 -7 8 -3
18 3 9 3 14 -1 11 -4 -4 -18 3 -31 15 -14 11 -42 37 -64 55 -22 19 -37 40 -33
45 3 6 -1 5 -10 -2 -13 -10 -18 -10 -24 -1 -4 8 -3 9 4 5 7 -4 12 -1 12 9 0
11 -5 15 -14 12 -8 -3 -16 2 -19 15 -3 11 -10 17 -16 13 -10 -6 -16 8 -12 29
1 5 -4 4 -12 -2 -12 -10 -18 -7 -31 12 -9 14 -16 31 -16 38 0 9 -3 9 -10 -2
-7 -11 -10 -11 -10 -2 0 7 -4 10 -10 7 -5 -3 -10 1 -10 9 0 9 -6 15 -12 14 -8
-2 -13 6 -12 19 1 12 -1 22 -5 21 -20 -2 -29 4 -27 20 0 11 -5 16 -15 14 -10
-1 -19 7 -22 19 -4 16 -11 20 -26 16 -15 -4 -19 0 -16 15 3 15 0 18 -17 12
-14 -4 -18 -2 -14 5 4 6 0 14 -9 17 -9 4 -14 13 -11 21 3 8 2 12 -3 9 -5 -3
-14 1 -21 9 -7 8 -16 13 -20 10 -4 -3 -11 2 -14 11 -4 10 -2 13 7 8 6 -4 1 4
-13 17 -14 14 -30 23 -37 21 -6 -2 -14 6 -18 17 -6 19 -17 25 -37 22 -4 0 -15
13 -23 29 -9 17 -20 30 -26 30 -6 0 -7 -5 -3 -12 5 -7 3 -8 -5 -3 -9 5 -10 10
-2 18 14 14 14 30 1 22 -5 -3 -10 -1 -10 6 0 7 -3 9 -7 6 -9 -10 -34 14 -26
26 3 6 1 7 -5 3 -7 -4 -12 -2 -12 3 0 15 -20 13 -45 -3z m780 -686 c3 -5 1
-10 -4 -10 -6 0 -11 5 -11 10 0 6 2 10 4 10 3 0 8 -4 11 -10z"/>
<path d="M5580 2160 c8 -5 20 -10 25 -10 6 0 3 5 -5 10 -8 5 -19 10 -25 10 -5
0 -3 -5 5 -10z"/>
</g>
</svg>
